<?xml version="1.0" encoding="utf-8"?>
<!-- Generator: Adobe Illustrator 18.0.0, SVG Export Plug-In . SVG Version: 6.00 Build 0)  -->
<!DOCTYPE svg PUBLIC "-//W3C//DTD SVG 1.1//EN" "http://www.w3.org/Graphics/SVG/1.1/DTD/svg11.dtd">
<svg version="1.1" id="Calque_1" xmlns="http://www.w3.org/2000/svg" xmlns:xlink="http://www.w3.org/1999/xlink" x="0px" y="0px" width="64" height="64"
	 viewBox="0 0 64 64" enable-background="new 0 0 64 64" xml:space="preserve">
<g>
	<g enable-background="new    ">
		<polygon fill="#4D0049" points="46.2,15.8 39.2,25.1 30.3,25.1 37.3,15 		"/>
		<polygon fill="#5B0056" points="37.3,15 30.3,25.1 24,16.1 30.3,6.1 		"/>
		<polygon fill="#6C0066" points="39.2,7.6 46.2,15.8 37.3,15 30.3,6.1 		"/>
	</g>
	<g enable-background="new    ">
		<polygon fill="#6C0066" points="62.8,35.6 54.4,36.7 45.3,25.1 54,25.1 		"/>
		<polygon fill="#4D0049" points="62.8,35.6 54,44.8 45.3,46.7 54.4,36.7 		"/>
		<polygon fill="#5B0056" points="54.4,36.7 45.3,46.7 37.3,35.2 45.3,25.1 		"/>
		<polygon fill="#6C0066" points="26.7,14 37.3,15 45.3,25.1 34.7,25.1 		"/>
		<polygon fill="#5B0056" points="34.7,25.1 26.7,36.2 19.7,25.1 26.7,14 		"/>
		<polygon fill="#4D0049" points="45.3,25.1 37.3,35.2 26.7,36.2 34.7,25.1 		"/>
		<polygon fill="#6C0066" points="7.1,2.3 19.7,4.4 26.7,14 13.8,12.8 		"/>
		<polygon fill="#4D0049" points="26.7,14 19.7,25.1 7.1,25.1 13.8,12.8 		"/>
		<polygon fill="#5B0056" points="13.8,12.8 7.1,25.1 1.2,14.5 7.1,2.3 		"/>
	</g>
	<g>
		<g>
			<polygon fill="#6C0066" points="31,39.6 21.7,51.7 13.8,37.4 21.7,25.1 			"/>
			<polygon fill="#6C0066" points="44,38 34.7,48.9 21.7,51.7 31,39.6 			"/>
			<polygon fill="#6C0066" points="31,39.6 21.7,25.1 34.7,25.1 44,38 			"/>
		</g>
		<g>
			<polygon fill="#5B0056" points="31,39.6 21.7,51.7 13.8,37.4 21.7,25.1 			"/>
			<polygon fill="#4D0049" points="44,38 34.7,48.9 21.7,51.7 31,39.6 			"/>
			<polygon fill="#6C0066" points="31,39.6 21.7,25.1 34.7,25.1 44,38 			"/>
		</g>
	</g>
</g>
<path fill="#6C0066" d="M4,51h6v2H8v8H6v-8H4V51z M12,61h2v-4h2v4h2v-6h-4v-4h-2V61z M28,55v6h6v-2h-2v-2h2v-2H28z M36,55v6h6v-2h-2
	v-2h2v-2H36z M52,51v6h-4v4h-2V51H52z M50,53h-2v2h2V53z M22,61v-4h4v-2h-6v6H22z"/>
<polygon fill="#6C0066" points="54,55 56,55 56,61 54,61 54,59 60,59 60,61 58,61 58,55 60,55 60,57 54,57 "/>
</svg>
