<?xml version="1.0" encoding="utf-8"?>
<!-- Generator: Adobe Illustrator 18.0.0, SVG Export Plug-In . SVG Version: 6.00 Build 0)  -->
<!DOCTYPE svg PUBLIC "-//W3C//DTD SVG 1.1//EN" "http://www.w3.org/Graphics/SVG/1.1/DTD/svg11.dtd">
<svg version="1.1" id="Calque_1" xmlns="http://www.w3.org/2000/svg" xmlns:xlink="http://www.w3.org/1999/xlink" x="0px" y="0px"
	 viewBox="0 0 32 32" enable-background="new 0 0 32 32" xml:space="preserve">
<rect display="none" fill="#FFFFFF" width="32" height="32"/>
<g>
	<g enable-background="new    ">
		<polygon fill="#4D0049" points="23.1,7.9 19.6,12.6 15.1,12.6 18.6,7.5 		"/>
		<polygon fill="#5B0056" points="18.6,7.5 15.1,12.6 12,8.1 15.1,3 		"/>
		<polygon fill="#6C0066" points="19.6,3.8 23.1,7.9 18.6,7.5 15.1,3 		"/>
	</g>
	<g enable-background="new    ">
		<polygon fill="#6C0066" points="31.4,17.8 27.2,18.4 22.6,12.6 27,12.6 		"/>
		<polygon fill="#4D0049" points="31.4,17.8 27,22.4 22.6,23.4 27.2,18.4 		"/>
		<polygon fill="#5B0056" points="27.2,18.4 22.6,23.4 18.6,17.6 22.6,12.6 		"/>
		<polygon fill="#6C0066" points="13.4,7 18.6,7.5 22.6,12.6 17.4,12.6 		"/>
		<polygon fill="#5B0056" points="17.4,12.6 13.4,18.1 9.9,12.6 13.4,7 		"/>
		<polygon fill="#4D0049" points="22.6,12.6 18.6,17.6 13.4,18.1 17.4,12.6 		"/>
		<polygon fill="#6C0066" points="3.5,1.1 9.9,2.2 13.4,7 6.9,6.4 		"/>
		<polygon fill="#4D0049" points="13.4,7 9.9,12.6 3.5,12.6 6.9,6.4 		"/>
		<polygon fill="#5B0056" points="6.9,6.4 3.5,12.6 0.6,7.3 3.5,1.1 		"/>
	</g>
	<g>
		<g>
			<polygon fill="#6C0066" points="15.5,19.8 10.9,25.9 6.9,18.7 10.9,12.6 			"/>
			<polygon fill="#6C0066" points="22,19 17.4,24.5 10.9,25.9 15.5,19.8 			"/>
			<polygon fill="#6C0066" points="15.5,19.8 10.9,12.6 17.4,12.6 22,19 			"/>
		</g>
		<g>
			<polygon fill="#5B0056" points="15.5,19.8 10.9,25.9 6.9,18.7 10.9,12.6 			"/>
			<polygon fill="#4D0049" points="22,19 17.4,24.5 10.9,25.9 15.5,19.8 			"/>
			<polygon fill="#6C0066" points="15.5,19.8 10.9,12.6 17.4,12.6 22,19 			"/>
		</g>
	</g>
</g>
<path fill="#6C0066" d="M2,25.5h3v1H4v4H3v-4H2V25.5z M6,30.5h1v-2h1v2h1v-3H7v-2H6V30.5z M14,27.5v3h3v-1h-1v-1h1v-1H14z M18,27.5
	v3h3v-1h-1v-1h1v-1H18z M26,25.5v3h-2v2h-1v-5H26z M25,26.5h-1v1h1V26.5z M11,30.5v-2h2v-1h-3v3H11z M27,27.5h1v3h-1v-1h3v1h-1v-3h1
	v1h-3V27.5z"/>
</svg>
